<svg width="24" height="22" viewBox="0 0 24 22" fill="none" xmlns="http://www.w3.org/2000/svg">
<path fill-rule="evenodd" clip-rule="evenodd" d="M0.0170898 10.102V11.7529C0.0170898 12.6848 0.761745 13.4431 1.77566 13.4431H21.6279C22.1863 13.4431 22.5826 13.2465 22.8698 12.9627C23.1405 12.6953 23.3865 12.2799 23.3865 11.7529C23.3865 11.0327 23.481 9.87597 23.2109 9.33526C23.1186 9.15054 22.9545 8.91437 22.8071 8.798C22.4045 8.4801 22.0567 8.37247 21.3544 8.37247H2.04921C1.14721 8.37247 0.558144 8.60398 0.192731 9.33526C0.0951567 9.53057 0.0170898 9.82724 0.0170898 10.102Z" fill="#011640"/>
<path fill-rule="evenodd" clip-rule="evenodd" d="M0.0171855 1.6902C0.0171855 2.42159 -0.0794764 3.54391 0.185692 4.07571C0.544174 4.79474 1.0711 5.07064 2.01022 5.07064H21.3936C22.0488 5.07064 22.4345 4.93938 22.8072 4.64508C23.146 4.37755 23.3866 3.80406 23.3866 3.34113V1.6902C23.3866 0.770628 22.6204 0 21.7062 0H1.69759C0.778813 0 0.0171855 0.766071 0.0171855 1.6902Z" fill="#011640"/>
<path fill-rule="evenodd" clip-rule="evenodd" d="M0.0170898 18.4744V20.1253C0.0170898 21.0406 0.807016 21.8155 1.58027 21.8155H21.8233C22.5929 21.8155 23.3865 21.044 23.3865 20.1253V18.4744C23.3865 17.5607 22.5987 16.7842 21.8233 16.7842H1.58027C0.808943 16.7842 0.0170898 17.557 0.0170898 18.4744Z" fill="#011640"/>
</svg>
