<svg width="34" height="38" viewBox="0 0 34 38" fill="none" xmlns="http://www.w3.org/2000/svg">
<path d="M3.77778 34.2C3.77778 35.2078 4.17579 36.1744 4.88426 36.887C5.59273 37.5996 6.55363 38 7.55556 38H26.4444C27.4464 38 28.4073 37.5996 29.1157 36.887C29.8242 36.1744 30.2222 35.2078 30.2222 34.2V11.4H34V7.6H26.4444V3.8C26.4444 2.79218 26.0464 1.82563 25.338 1.11299C24.6295 0.400356 23.6686 0 22.6667 0H11.3333C10.3314 0 9.37051 0.400356 8.66204 1.11299C7.95357 1.82563 7.55556 2.79218 7.55556 3.8V7.6H0V11.4H3.77778V34.2ZM11.3333 3.8H22.6667V7.6H11.3333V3.8ZM9.44444 11.4H26.4444V34.2H7.55556V11.4H9.44444Z" fill="#011640"/>
<path d="M11 15H15V30H11V15ZM19 15H23V30H19V15Z" fill="#011640"/>
</svg>
