<svg width="52" height="52" viewBox="0 0 52 52" fill="none" xmlns="http://www.w3.org/2000/svg">
<circle cx="26" cy="26" r="26" fill="#6085FF"/>
<path d="M36.6667 15H15.3333C14.9797 15 14.6406 15.1386 14.3905 15.3854C14.1405 15.6321 14 15.9668 14 16.3158V19.7237C14 20.4119 14.284 21.0882 14.7773 21.5751L22 28.7027V38.6844C22.0003 38.9086 22.0585 39.129 22.1692 39.3247C22.2799 39.5205 22.4394 39.6851 22.6326 39.803C22.8258 39.921 23.0463 39.9883 23.2732 39.9986C23.5001 40.0089 23.726 39.9619 23.9293 39.862L29.2627 37.2304C29.7147 37.0068 30 36.5515 30 36.0528V28.7027L37.2227 21.5751C37.716 21.0882 38 20.4119 38 19.7237V16.3158C38 15.9668 37.8595 15.6321 37.6095 15.3854C37.3594 15.1386 37.0203 15 36.6667 15ZM27.724 27.2277C27.5999 27.3497 27.5016 27.4947 27.4345 27.6544C27.3675 27.814 27.3331 27.9852 27.3333 28.158V35.2396L24.6667 36.5554V28.158C24.6669 27.9852 24.6325 27.814 24.5655 27.6544C24.4984 27.4947 24.4001 27.3497 24.276 27.2277L16.6667 19.7237V17.6316H35.3347L35.3373 19.7145L27.724 27.2277Z" fill="white"/>
</svg>
