<svg width="37" height="37" viewBox="0 0 37 37" fill="none" xmlns="http://www.w3.org/2000/svg">
<path d="M2 18.3559C2 9.33727 9.40079 2 18.4992 2C27.5979 2 35 9.33727 35 18.3559C35 27.3742 27.598 34.7114 18.4992 34.7114C9.40079 34.7114 2 27.3745 2 18.3559Z" stroke="#011640" stroke-width="1.63159"/>
<path d="M20.1744 16.7675H16.8245C16.2624 16.7675 15.8061 17.2198 15.8061 17.776V27.6209C15.8061 28.1781 16.2624 28.6295 16.8245 28.6295H20.1744C20.7364 28.6295 21.1928 28.1779 21.1928 27.6209V17.7761C21.1928 17.2198 20.7364 16.7675 20.1744 16.7675Z" fill="#011640" stroke="#011640" stroke-width="1.63159"/>
<path d="M18.4993 8.08221C16.8516 8.08221 15.5152 9.40683 15.5152 11.0401C15.5152 12.6735 16.8516 13.9982 18.4993 13.9982C20.1472 13.9982 21.4837 12.6736 21.4837 11.0401C21.4837 9.40683 20.1473 8.08221 18.4993 8.08221Z" fill="#011640" stroke="#011640" stroke-width="1.63159"/>
<path d="M1 18.5002C1 8.85062 8.84932 1 18.4992 1C28.1493 1 36 8.85062 36 18.5002C36 28.1495 28.1494 36 18.4992 36C8.84932 36 1 28.1498 1 18.5002Z" stroke="#011640" stroke-width="1.63159"/>
</svg>
