<svg width="52" height="52" viewBox="0 0 52 52" fill="none" xmlns="http://www.w3.org/2000/svg">
<circle cx="26" cy="26" r="26" fill="#6085FF"/>
<path d="M24.6231 12.9668C21.19 13.4936 18.193 15.3281 16.1889 18.1254C16.0012 18.3918 15.8438 18.5977 15.8438 18.5856C15.8438 18.5734 15.6924 17.8106 15.5107 16.8963C15.1354 15.0193 15.0506 14.7953 14.6147 14.4986C13.7731 13.9295 12.6772 14.3715 12.4471 15.3705C12.3865 15.6369 12.435 15.9457 13.1191 19.3545C13.5248 21.3828 13.8941 23.1266 13.9305 23.2295C14.1121 23.6594 14.5299 23.9863 15.0082 24.0711C15.3049 24.1256 22.5281 22.7088 22.8854 22.5211C23.5029 22.2123 23.7875 21.5281 23.5938 20.8379C23.4606 20.3596 22.8188 19.8691 22.3223 19.8691C22.2012 19.8691 21.1658 20.0568 20.0215 20.2869C18.8711 20.517 17.9205 20.6986 17.9084 20.6805C17.8781 20.6502 18.2232 20.1113 18.6229 19.5664C19.083 18.9428 20.0639 17.9801 20.7481 17.4897C21.402 17.0234 22.6674 16.3756 23.3758 16.1395C25.8037 15.3402 28.4254 15.5037 30.7262 16.5996C32.8211 17.5986 34.365 19.1486 35.4307 21.3344C35.6426 21.7703 35.8787 22.1941 35.9514 22.2668C36.3025 22.6422 37.0473 22.7693 37.5559 22.5393C38.01 22.3334 38.3672 21.7764 38.3672 21.2738C38.3672 21.0014 38.2158 20.5957 37.8404 19.8389C35.9816 16.1213 32.4699 13.5783 28.3467 12.9607C27.3174 12.8094 25.6221 12.8094 24.6231 12.9668Z" fill="white"/>
<path d="M33.9352 27.6434C29.7635 28.485 29.8301 28.4668 29.5153 29.0662C29.1278 29.8049 29.4063 30.6344 30.1631 30.9856C30.3266 31.0643 30.5627 31.1309 30.6778 31.1309C30.7988 31.1309 31.8342 30.9432 32.9785 30.7131C34.1289 30.483 35.0795 30.3074 35.0916 30.3196C35.1401 30.368 34.3651 31.476 33.9352 31.9725C32.6031 33.5225 30.6293 34.691 28.6252 35.127C25.5313 35.799 22.3586 34.9756 19.9488 32.8625C18.974 32.0088 18.2233 31.0037 17.5754 29.6778C17.3574 29.2358 17.1213 28.8059 17.0486 28.7332C16.6975 28.3578 15.9528 28.2307 15.4442 28.4608C15.1475 28.6 14.7963 28.9936 14.7055 29.3084C14.5541 29.7989 14.6328 30.1076 15.1717 31.1914C16.9518 34.7516 20.2576 37.234 24.2174 37.9787C25.0772 38.1422 27.0328 38.2028 27.9592 38.0998C31.4104 37.7063 34.583 35.8778 36.6598 33.0865C36.9383 32.7112 37.1381 32.4932 37.1623 32.5416C37.1805 32.584 37.344 33.3469 37.5195 34.243C37.8949 36.1321 37.9676 36.3016 38.5428 36.5983C39.3844 37.0221 40.3531 36.5619 40.5469 35.6537C40.6074 35.3571 40.5711 35.1149 39.8567 31.5608C39.4147 29.3629 39.0514 27.716 38.9969 27.6252C38.7244 27.1953 38.3551 26.9592 37.8949 26.9229C37.6951 26.9047 36.5205 27.1166 33.9352 27.6434Z" fill="white"/>
</svg>
