<svg width="630" height="599" viewBox="0 0 630 599" fill="none" xmlns="http://www.w3.org/2000/svg">
<g clip-path="url(#clip0_291_234)">
<path d="M581.189 563.961C581.424 575.078 579.888 586.162 576.64 596.798C576.526 597.184 576.39 597.57 576.253 597.957H509.288C510.245 593.247 511.765 588.67 513.815 584.322C519.387 572.505 528.486 562.393 537.471 552.348C549.845 538.509 561.923 524.784 563.834 506.786C568.739 514.256 572.653 522.33 575.48 530.806C572.019 532.086 568.843 534.032 566.131 536.532C565.381 537.237 564.584 538.259 564.971 539.236C565.335 540.054 566.336 540.327 567.223 540.509C569.361 540.918 571.499 541.327 573.638 541.713C575.321 542.054 577.027 542.372 578.733 542.69C580.232 549.685 581.055 556.808 581.189 563.961Z" fill="#F2F2F2"/>
<path d="M637.441 556.598C626.705 563.12 619.881 573.21 614.308 584.504C609.459 585.608 604.982 587.958 601.32 591.321C600.546 592.026 599.75 593.048 600.16 594.025C600.501 594.844 601.525 595.116 602.412 595.298C604.527 595.707 606.688 596.116 608.803 596.502C608.599 596.98 608.394 597.48 608.189 597.957H537.221C540.442 593.616 544.01 589.543 547.889 585.776C548.73 584.936 549.595 584.14 550.482 583.322C559.529 575.154 569.916 568.605 581.189 563.961C598.949 556.544 618.369 554.002 637.441 556.598Z" fill="#F2F2F2"/>
<path d="M549.049 597.957H485.859C485.514 592.901 485.545 587.828 485.95 582.777C487.319 567.143 492.064 551.991 499.859 538.366C507.654 524.741 518.313 512.967 531.102 503.854C527.826 515.512 529.51 527.101 532.922 538.736C532.444 538.895 531.966 539.032 531.534 539.213C528.073 540.494 524.897 542.44 522.185 544.94C521.435 545.645 520.639 546.667 521.025 547.644C521.366 548.462 522.39 548.735 523.277 548.917C525.415 549.326 527.554 549.735 529.669 550.121C531.375 550.462 533.081 550.78 534.787 551.121C535.583 551.258 536.379 551.417 537.175 551.576C537.289 551.848 537.357 552.098 537.471 552.348C541.474 563.37 545.841 574.482 547.889 585.776C548.395 588.611 548.745 591.471 548.935 594.343C549.003 595.548 549.049 596.752 549.049 597.957Z" fill="#F2F2F2"/>
<path d="M65.5157 42.7317C77.327 42.7317 86.902 33.1659 86.902 21.3659C86.902 9.56583 77.327 0 65.5157 0C53.7044 0 44.1294 9.56583 44.1294 21.3659C44.1294 33.1659 53.7044 42.7317 65.5157 42.7317Z" fill="#FD6584"/>
<path d="M113.383 11.25C112.779 9.27371 111.609 7.51713 110.018 6.19627C108.427 4.87542 106.485 4.04792 104.429 3.81553C104.383 3.80899 104.339 3.81763 104.292 3.81465C104.233 3.7964 104.172 3.78236 104.11 3.77266C94.3295 2.50984 83.0397 7.18301 78.9637 16.4463C77.9691 15.0915 76.6594 13.9989 75.1476 13.2629C73.6359 12.5269 71.9675 12.1697 70.2866 12.222C68.1192 12.3663 66.049 13.1744 64.3577 14.5363C62.6665 15.8981 61.4364 17.7476 60.835 19.833C60.771 20.0882 60.79 20.3572 60.8893 20.6009C60.9886 20.8446 61.163 21.0504 61.3872 21.1885C62.0331 21.7354 62.7984 22.1235 63.6216 22.3216C65.3978 22.6975 67.1802 23.0419 68.969 23.3547C72.4596 23.965 75.9683 24.4584 79.4953 24.8349C86.6547 25.6014 93.8586 25.8734 101.056 25.649C103.453 25.5744 105.764 25.4949 107.96 24.4381C109.558 23.6497 110.923 22.4596 111.921 20.9848C112.862 19.5673 113.48 17.9611 113.733 16.2793C113.985 14.5975 113.866 12.8808 113.383 11.25Z" fill="#F0F0F0"/>
<path d="M68.9336 39.7377C68.3288 37.7615 67.1591 36.0049 65.5683 34.6841C63.9774 33.3633 62.0349 32.5357 59.9795 32.3033C59.9329 32.2968 59.8888 32.3054 59.8426 32.3024C59.7828 32.2842 59.7219 32.2702 59.6601 32.2605C49.8798 30.9976 38.5901 35.6708 34.5139 44.9341C33.5194 43.5792 32.2097 42.4866 30.6979 41.7506C29.1861 41.0147 27.5178 40.6574 25.8369 40.7098C23.6695 40.8541 21.5992 41.6622 19.908 43.0241C18.2167 44.386 16.9867 46.2354 16.3853 48.3208C16.3213 48.576 16.3404 48.845 16.4396 49.0887C16.5389 49.3324 16.7133 49.5382 16.9375 49.6763C17.5835 50.2232 18.3487 50.6113 19.1718 50.8094C20.948 51.1853 22.7305 51.5296 24.5193 51.8425C28.0098 52.4527 31.5186 52.9461 35.0456 53.3227C42.2051 54.0892 49.4089 54.3612 56.6059 54.1368C59.0028 54.0622 61.3144 53.9827 63.5107 52.9258C65.1084 52.1374 66.4734 50.9473 67.4716 49.4726C68.4121 48.055 69.0304 46.4489 69.2829 44.7671C69.5355 43.0853 69.4162 41.3686 68.9336 39.7377Z" fill="#F0F0F0"/>
<path d="M274.671 371.36C274.13 372.153 272.706 373.097 272.151 373.877L272.743 372.084L272.542 371.669L271.282 369.152L239.209 304.577L239.197 304.565L184.827 195.149V195.136L183.58 192.632V192.619L156.672 138.465L155.4 135.898C156.357 135.923 157.314 135.961 158.272 136.011L159.557 138.591L186.389 192.619L186.402 192.632L187.649 195.136V195.149L240.633 301.783V301.796L241.88 304.3V304.313L273.953 368.837L274.381 369.706L274.671 371.36Z" fill="#011640"/>
<path d="M271.093 195.149H31.0649C31.7077 194.306 32.3622 193.462 33.0425 192.632H269.115C269.796 193.462 270.45 194.306 271.093 195.149Z" fill="#011640"/>
<path d="M301.503 301.796C301.427 302.639 301.339 303.482 301.226 304.313H239.738V301.796H301.503Z" fill="#3F3D56"/>
<path d="M40.1977 184.338V386.859C39.3285 385.941 38.4969 385.009 37.6782 384.078V187.119C38.4969 186.188 39.3285 185.257 40.1977 184.338Z" fill="#011640"/>
<path d="M273.326 369.151H38.9385V371.668H273.326V369.151Z" fill="#3F3D56"/>
<path d="M273.122 371.36H273.411V370.945C273.323 371.089 273.227 371.228 273.122 371.36ZM271.182 194.84C270.539 193.997 269.884 193.154 269.204 192.323C255.823 175.551 239.014 161.824 219.9 152.06C200.785 142.296 179.805 136.719 158.361 135.702C157.403 135.652 156.446 135.614 155.489 135.589C154.052 135.551 152.616 135.526 151.168 135.526C130.334 135.515 109.723 139.819 90.6387 148.168C71.554 156.516 54.4091 168.727 40.2866 184.029C39.4174 184.948 38.5858 185.879 37.7671 186.811C36.1672 188.61 34.6219 190.448 33.1311 192.323C32.4509 193.154 31.7963 193.997 31.1535 194.84C9.86474 222.567 -1.11617 256.824 0.0902902 291.748C1.29675 326.672 14.6156 360.092 37.7671 386.286C38.5858 387.218 39.4174 388.149 40.2866 389.068C55.5103 405.539 74.2181 418.412 95.0487 426.751C115.879 435.089 138.309 438.684 160.705 437.272C183.101 435.86 204.9 429.478 224.516 418.591C244.133 407.703 261.073 392.582 274.104 374.331C274.659 373.55 275.213 372.77 275.754 371.977C289.725 351.756 298.502 328.413 301.314 304.004C301.428 303.174 301.516 302.33 301.591 301.487C302.082 296.579 302.33 291.599 302.335 286.549C302.373 253.381 291.419 221.133 271.182 194.84V194.84ZM298.782 304.004C296.04 327.433 287.702 349.861 274.469 369.397C274.129 369.913 273.777 370.429 273.411 370.945C273.323 371.089 273.227 371.228 273.122 371.36C273.034 371.499 272.933 371.637 272.832 371.776C259.981 390.119 243.141 405.318 223.574 416.233C204.006 427.149 182.22 433.497 159.847 434.802C137.474 436.107 115.095 432.336 94.3893 423.77C73.6832 415.204 55.1867 402.067 40.2865 385.343C39.4173 384.386 38.5734 383.43 37.767 382.448C15.6156 356.375 3.1716 323.45 2.54481 289.257C1.91801 255.064 13.147 221.706 34.328 194.84C34.996 193.997 35.6634 193.154 36.356 192.323C36.8099 191.757 37.2756 191.203 37.767 190.649C38.5734 189.667 39.4173 188.711 40.2865 187.755C54.2028 172.111 71.2802 159.592 90.3927 151.023C109.505 142.455 130.219 138.031 151.168 138.043C153.045 138.043 154.909 138.081 156.761 138.156C157.731 138.181 158.688 138.232 159.645 138.282C180.147 139.453 200.182 144.86 218.485 154.162C236.788 163.464 252.96 176.458 265.979 192.323C266.672 193.154 267.34 193.997 268.007 194.84C291.777 225.038 302.912 263.262 299.072 301.487C298.983 302.33 298.895 303.174 298.782 304.004L298.782 304.004ZM273.122 371.36H273.411V370.945C273.323 371.089 273.227 371.228 273.122 371.36H273.122Z" fill="#CCCCCC"/>
<path d="M132.115 87.6366C132.115 88.3287 132.093 89.015 132.048 89.6955C131.796 93.6203 130.804 97.462 129.123 101.018C129.11 101.049 129.095 101.077 129.082 101.105C129.004 101.27 128.923 101.435 128.841 101.598C128.341 102.603 127.786 103.581 127.18 104.527C124.408 108.866 120.609 112.457 116.119 114.981C111.628 117.506 106.584 118.887 101.433 119.002L101.744 136.844L105.794 134.713L106.517 136.087L101.774 138.582L102.354 171.719L102.36 172.162L99.2288 172.858L99.2352 172.413L100.221 119.004C96.0748 118.944 91.9815 118.063 88.1791 116.41C84.3766 114.757 80.9407 112.366 78.0708 109.375C77.8732 109.172 77.6777 108.961 77.4865 108.753L77.4648 108.729C75.0737 106.124 73.1398 103.134 71.7448 99.8858C71.7752 99.9205 71.8078 99.9531 71.8382 99.9877C58.898 67.4998 66.4265 52.4391 86.731 59.552C86.8396 59.4977 86.9504 59.4457 87.059 59.3914C94.1608 55.9739 102.289 55.3468 109.832 57.6345C117.374 59.9221 123.782 64.9575 127.783 71.7425C127.974 72.0636 128.159 72.3912 128.337 72.721C130.823 77.2999 132.122 82.4276 132.115 87.6366Z" fill="#E5E5E5"/>
<path d="M169.043 60.002C168.664 66.2352 167.05 72.3311 164.294 77.9359C158.99 88.6585 149.681 96.7885 138.079 99.8216C138.059 99.8318 138.038 99.8362 138.016 99.8342C135.097 100.595 132.1 101.021 129.084 101.105H128.832C128.517 101.118 128.203 101.118 127.888 101.118C127.673 101.118 127.459 101.118 127.245 101.105C116.443 100.939 106.14 96.5352 98.5606 88.8449C90.9808 81.1546 86.7323 70.7947 86.7324 60.002V59.5489C86.7513 56.9249 87.1328 54.3161 87.8662 51.7963C87.8662 51.7838 87.8787 51.7712 87.8787 51.7586C89.2469 47.38 91.7146 43.4243 95.0466 40.2683C103.298 32.1131 116.361 26.9909 127.888 18.886C153.133 1.14085 171.676 18.798 169.043 60.002Z" fill="#E5E5E5"/>
<path opacity="0.2" d="M164.294 77.9359C158.99 88.6586 149.681 96.7886 138.079 99.8216C138.059 99.8318 138.037 99.8362 138.016 99.8342C135.104 100.556 132.121 100.953 129.122 101.017H128.832C128.303 101.03 127.774 101.03 127.245 101.017C116.414 100.747 106.125 96.2276 98.6046 88.4363C91.084 80.6449 86.9366 70.2085 87.0598 59.3853C87.0982 56.8365 87.368 54.2965 87.8661 51.7964C87.8661 51.7839 87.8786 51.7713 87.8786 51.7587C89.2468 47.38 91.7144 43.4243 95.0464 40.2684C93.9274 45.6013 93.8806 51.1033 94.9087 56.4545C95.9368 61.8057 98.0193 66.8993 101.035 71.4393C104.051 75.9794 107.94 79.8752 112.476 82.9004C117.013 85.9256 122.106 88.0198 127.459 89.0613C127.85 89.1368 128.24 89.2123 128.631 89.2752C129.764 89.4641 130.898 89.6025 132.045 89.6906C137.95 90.1694 143.89 89.3668 149.456 87.3379C155.023 85.309 160.084 82.1018 164.294 77.9359Z" fill="black"/>
<path d="M129.282 126.772L135.496 123.505L134.548 121.705L129.241 124.497L128.842 101.599V101.596L128.832 101.111V101.024L128.626 89.2774L128.337 72.7217L128.116 60.001H128L127.783 71.7423V71.7451L127.464 89.0657L127.244 101.017L127.243 101.116L127.179 104.526L125.92 172.927L125.911 173.379L130.115 174.557L130.107 174.102L129.282 126.772Z" fill="#011640"/>
<path d="M279.207 207.773C253.082 202.543 226.874 197.799 200.347 194.896C175.195 191.94 149.831 191.208 124.55 192.706C101.718 194.245 78.6911 197.853 57.2424 206.078C40.7143 212.415 23.0963 222.005 14.1685 237.996C5.56249 253.411 8.91911 271.188 18.29 285.411C29.565 302.524 47.1469 314.251 65.4263 322.821C86.239 332.58 108.5 338.906 130.79 344.286C142.094 347.014 153.46 349.48 164.827 351.934C167.198 352.446 168.211 348.807 165.832 348.294C142.909 343.345 119.921 338.381 97.5679 331.217C76.8827 324.589 55.714 316.097 38.7746 302.178C25.0706 290.917 12.0409 274.469 12.8498 255.769C13.6652 236.917 29.4976 223.754 45.0154 215.652C64.4083 205.527 86.4414 200.595 108.031 198.017C132.752 195.265 157.683 194.927 182.469 197.006C215.596 199.524 248.233 205.366 280.744 211.909" fill="black"/>
<path d="M156.559 237.797C167.553 243.286 174.246 250.537 174.246 258.489C174.246 275.62 143.217 289.507 104.942 289.507C88.3011 289.507 73.0341 286.88 61.0874 282.505C73.7765 288.841 92.1961 292.831 112.704 292.831C150.979 292.831 182.008 278.943 182.008 261.812C182.008 252.129 172.09 243.485 156.559 237.797Z" fill="#F1F1F1"/>
<path d="M181.013 249.564C193.418 255.758 200.971 263.939 200.971 272.913C200.971 292.243 165.959 307.913 122.769 307.913C103.992 307.913 86.7652 304.949 73.2847 300.012C87.6028 307.162 108.387 311.663 131.528 311.663C174.717 311.663 209.729 295.993 209.729 276.663C209.729 265.737 198.538 255.982 181.013 249.564Z" fill="#F1F1F1"/>
<path d="M147.2 242.98C154.945 246.847 159.661 251.955 159.661 257.558C159.661 269.627 137.801 279.411 110.835 279.411C100.329 279.547 89.878 277.878 79.938 274.478C88.8778 278.942 101.855 281.753 116.303 281.753C143.269 281.753 165.13 271.969 165.13 259.899C165.13 253.077 158.142 246.987 147.2 242.98Z" fill="#F1F1F1"/>
<path d="M105.956 266.093C90.0285 266.093 82.283 261.728 78.5899 258.066C77.9161 257.394 77.457 256.537 77.271 255.604C77.0849 254.671 77.1801 253.704 77.5447 252.825C77.9092 251.946 78.5266 251.195 79.3186 250.667C80.1107 250.139 81.0418 249.858 81.994 249.859H137.558C138.314 249.858 139.052 250.093 139.669 250.531C140.285 250.969 140.749 251.588 140.997 252.302C141.245 253.016 141.264 253.79 141.051 254.515C140.838 255.24 140.404 255.881 139.81 256.349C134.15 260.794 123.682 266.093 105.956 266.093Z" fill="#011640"/>
<path d="M117.493 210.229C113.161 206.941 107.724 205.456 102.321 206.083C111.914 208.449 104.344 221.694 113.08 235.43C117.841 242.916 108.582 246.586 99.7612 247.591C104.482 248.729 109.451 248.209 113.833 246.118C118.216 244.027 121.743 240.492 123.824 236.108C125.905 231.724 126.411 226.759 125.258 222.046C124.105 217.333 121.363 213.16 117.493 210.229V210.229Z" fill="#011640"/>
<path d="M107.661 203.324H105.615V251.975H107.661V203.324Z" fill="#011640"/>
<path d="M304.541 216.979C299.107 213.156 292.973 210.44 286.488 208.985C280.004 207.53 273.296 207.366 266.748 208.501C260.2 209.637 253.94 212.049 248.325 215.602C242.71 219.154 237.851 223.776 234.024 229.205C217.931 252.035 201.783 311.901 213.182 346.582C247.183 310.702 299.417 306.974 316.778 287.428C335.329 266.541 327.392 233.057 304.541 216.979Z" fill="#6085FF"/>
<path d="M274.713 268.676C283.829 268.676 291.218 261.293 291.218 252.187C291.218 243.08 283.829 235.698 274.713 235.698C265.598 235.698 258.208 243.08 258.208 252.187C258.208 261.293 265.598 268.676 274.713 268.676Z" fill="white"/>
<path d="M199.23 364.539C205.201 364.539 210.041 359.704 210.041 353.739C210.041 347.775 205.201 342.939 199.23 342.939C193.26 342.939 188.42 347.775 188.42 353.739C188.42 359.704 193.26 364.539 199.23 364.539Z" fill="#6085FF"/>
<path opacity="0.2" d="M292.371 248.382C293.464 250.252 294.178 252.319 294.471 254.464C294.765 256.609 294.632 258.792 294.081 260.886C293.531 262.98 292.572 264.946 291.261 266.67C289.95 268.394 288.312 269.844 286.441 270.935C284.569 272.027 282.5 272.74 280.353 273.033C278.205 273.326 276.021 273.194 273.925 272.644C271.829 272.094 269.861 271.136 268.135 269.826C266.409 268.517 264.959 266.88 263.866 265.01C266.812 267.592 270.581 269.042 274.5 269.101C278.418 269.16 282.23 267.824 285.253 265.332C288.275 262.84 290.312 259.355 290.997 255.5C291.682 251.645 290.972 247.672 288.993 244.292C290.333 245.465 291.474 246.846 292.371 248.382Z" fill="#231F20"/>
<path opacity="0.2" d="M316.81 287.505C299.449 307.052 247.214 310.78 213.213 346.66C212.152 343.378 211.335 340.023 210.77 336.621C244.753 304.003 294.08 299.881 310.854 280.996C325.867 264.093 323.53 238.94 309.981 221.439C328.563 238.647 333.81 268.365 316.81 287.505Z" fill="#231F20"/>
<path d="M494.798 585.769H482.479L476.618 538.294H494.801L494.798 585.769Z" fill="#FFB6B6"/>
<path d="M497.941 597.7L458.216 597.699V597.197C458.216 593.1 459.845 589.171 462.745 586.274C465.645 583.377 469.577 581.75 473.678 581.75H473.679L480.935 576.25L494.474 581.75L497.941 581.751L497.941 597.7Z" fill="#2F2E41"/>
<path d="M447.056 578.013L435.038 580.724L418.854 535.704L436.591 531.704L447.056 578.013Z" fill="#FFB6B6"/>
<path d="M452.752 588.959L414.002 597.7L413.891 597.211C412.988 593.214 413.711 589.023 415.901 585.56C418.091 582.096 421.568 579.643 425.568 578.74L425.569 578.74L431.434 571.778L445.853 574.164L449.236 573.402L452.752 588.959Z" fill="#2F2E41"/>
<path d="M510.403 295.532C516.179 312.937 515.568 331.829 509.014 352.105L506.212 466.266C510.844 471.359 513.751 492.123 506.616 506.991C497.088 526.846 503.652 554.303 496.917 567.475H477.382L472.582 513.847L468.354 507.8L467.71 459.429C465.116 453.292 462.11 447.206 467.386 440.096L467.246 431.694L466.496 386.908L437.035 429.948C436.198 439.689 431.214 444.793 424.615 448.092L433.739 488.323C449.697 501.968 445.794 523.087 446.058 542.638L451.29 565.708L427.247 567.856L416.637 536.569L404.708 517.29L383.961 440.214L398.43 406.666L404.343 392.954L437.368 316.38L510.403 295.532Z" fill="#6085FF"/>
<path d="M306.299 233.461C307.262 234.421 308.424 235.159 309.704 235.623C310.983 236.086 312.349 236.263 313.705 236.142C315.06 236.021 316.373 235.605 317.55 234.922C318.727 234.24 319.74 233.308 320.517 232.192L352.366 241.136L347.138 224.774L317.696 218.789C315.733 217.608 313.404 217.188 311.152 217.608C308.899 218.028 306.879 219.259 305.474 221.067C304.069 222.876 303.377 225.136 303.529 227.421C303.681 229.705 304.667 231.854 306.299 233.461Z" fill="#FFB8B8"/>
<path d="M332.347 220.246L363.433 220.018C371.817 217.677 380.655 217.477 389.136 219.437L390.785 219.818L403.758 218.348C411.493 202.902 425.844 188.938 445.11 176.074C448.015 173.735 451.383 172.037 454.993 171.092C458.602 170.147 462.371 169.976 466.051 170.591C469.732 171.206 473.24 172.593 476.345 174.66C479.45 176.727 482.082 179.428 484.067 182.585C487.65 188.299 488.912 195.166 487.593 201.78C486.274 208.393 482.475 214.253 476.973 218.159L418.267 252.641C413.116 255.667 407.266 257.3 401.291 257.381L401.149 257.455L367.661 244.92L350.434 242.73L327.075 235.948L332.347 220.246Z" fill="#011640"/>
<path d="M457.066 147.773C473.265 147.773 486.396 134.654 486.396 118.471C486.396 102.288 473.265 89.1696 457.066 89.1696C440.868 89.1696 427.737 102.288 427.737 118.471C427.737 134.654 440.868 147.773 457.066 147.773Z" fill="#FFB8B8"/>
<path d="M484.457 137.055C486.631 133.956 488.173 128.993 489.084 125.365C490.302 120.589 490.502 115.61 489.672 110.751C488.841 105.893 486.997 101.263 484.261 97.1612C483.251 95.4895 481.804 94.125 480.075 93.2144C478.301 92.4229 475.961 92.6114 474.724 94.1089C474.72 92.7949 474.447 91.4957 473.921 90.2913C473.395 89.087 472.627 88.0031 471.666 87.1066C469.727 85.3235 467.4 84.0162 464.867 83.2883C459.989 81.8021 454.799 81.6631 449.848 82.8861C444.896 84.109 440.369 86.6484 436.746 90.2345C435.331 91.6734 435.836 84.484 434.264 85.7503C432.741 87.1108 430.746 87.8218 428.706 87.7313C426.698 87.5177 423.005 94.6659 422.983 92.6488C420.871 94.7635 419.94 103.681 420.601 106.595C421.262 109.509 431.092 108.221 433.91 109.22C435.777 109.881 437.805 109.904 439.739 110.334C443.176 111.222 446.17 113.336 448.154 116.277C450.138 119.219 450.975 122.784 450.508 126.301C451.745 124.639 453.242 123.188 454.942 122.003C455.799 121.418 456.783 121.046 457.812 120.918C458.842 120.79 459.887 120.909 460.861 121.265C461.74 121.736 462.514 122.382 463.134 123.163C463.754 123.944 464.208 124.843 464.468 125.806C465.108 127.69 465.356 129.69 466.008 131.57C467.921 137.086 468.908 142.876 474.241 144.184C478.449 145.216 481.489 141.286 484.457 137.055Z" fill="#2F2E41"/>
<path d="M512.905 289.724L509.685 283.289C505.743 258.89 501.848 236.132 507.139 215.662C507.472 197.792 501.943 181.004 486.592 171.836L479.667 167.698L476.162 158.816L443.883 159.603L443.788 171.248L432.228 189.668V189.744L432.95 289.98L436.141 300.324L431.325 312.358L433.881 320.035L497.516 309.871L504.916 308.685C505.771 308.412 506.595 308.053 507.377 307.613C510.032 306.14 512.113 303.816 513.285 301.017C513.352 300.856 513.409 300.704 513.466 300.543C513.965 299.236 514.253 297.859 514.321 296.462C514.436 294.132 513.949 291.811 512.905 289.724Z" fill="#011640"/>
<path opacity="0.2" d="M514.321 296.462C514.254 297.859 513.965 299.236 513.466 300.543L507.377 307.613C506.595 308.053 505.771 308.412 504.916 308.685L497.516 309.872L508.222 289.762L484.692 238.296L514.321 296.462Z" fill="black"/>
<path d="M539.931 355.989C538.749 355.184 537.759 354.13 537.029 352.901C536.3 351.673 535.848 350.299 535.708 348.878C535.567 347.456 535.74 346.021 536.214 344.673C536.688 343.326 537.453 342.098 538.453 341.078L522.966 309.99L540.896 312.172L552.854 341.358C554.458 343.151 555.349 345.47 555.357 347.875C555.365 350.28 554.49 352.605 552.897 354.408C551.304 356.211 549.104 357.368 546.714 357.66C544.325 357.951 541.911 357.356 539.931 355.989Z" fill="#FFB8B8"/>
<path d="M477.146 249.025L488.895 247.404C488.895 247.404 490.03 265.1 495.649 267.782C501.269 270.464 499.375 270.906 500.038 273.745C500.7 276.584 503.699 280.874 508.151 282.83C512.603 284.787 532.852 333.979 532.852 333.979L549.902 330.006C548.325 325.735 547.286 321.285 546.81 316.757C546.211 309.912 538.446 293.761 535.888 291.363C533.331 288.965 534.342 284.739 533.017 279.061C531.691 273.382 532.611 278.647 530.402 269.184C528.193 259.721 503.359 203.006 502.318 194.268C501.277 185.53 489.09 180.387 489.09 180.387L479.618 182.594L477.146 249.025Z" fill="#011640"/>
<path d="M282.026 599H651.815C652.13 599 652.431 598.875 652.653 598.653C652.875 598.431 653 598.13 653 597.816C653 597.503 652.875 597.202 652.653 596.98C652.431 596.758 652.13 596.633 651.815 596.633H282.026C281.712 596.633 281.41 596.758 281.188 596.98C280.966 597.202 280.841 597.503 280.841 597.816C280.841 598.13 280.966 598.431 281.188 598.653C281.41 598.875 281.712 599 282.026 599Z" fill="#CCCCCC"/>
</g>
<defs>
<clipPath id="clip0_291_234">
<rect width="653" height="599" fill="white"/>
</clipPath>
</defs>
</svg>
